HIERARCHY
ROOT Hips
{
	OFFSET 0.000000 35.069874 -0.029489
	CHANNELS 6 Xposition Yposition Zposition Xrotation Yrotation Zrotation 
	JOINT Spine
	{
		OFFSET 0.000000 6.876060 0.125662
		CHANNELS 3 Xrotation Yrotation Zrotation
		JOINT Spine1
		{
			OFFSET 0.000000 5.730046 0.104717
			CHANNELS 3 Xrotation Yrotation Zrotation
			JOINT Spine1_split
			{
				OFFSET 0.000000 5.730046 0.104717
				CHANNELS 3 Xrotation Yrotation Zrotation
				JOINT Spine2
				{
					OFFSET 0.000000 5.730046 0.104717
					CHANNELS 3 Xrotation Yrotation Zrotation
					JOINT Neck
					{
						OFFSET 0.000000 10.314075 0.188489
						CHANNELS 3 Xrotation Yrotation Zrotation
						JOINT Head
						{
							OFFSET 0.000000 7.643753 -2.377445
							CHANNELS 3 Xrotation Yrotation Zrotation
							JOINT HeadTop_End
							{
								OFFSET 0.000000 43.788605 -13.619637
								CHANNELS 3 Xrotation Yrotation Zrotation
								End Site
								{
									OFFSET 0.000000 0.000000 0.000000
								}
							}
						}
					}
					JOINT LeftShoulder
					{
						OFFSET 2.196093 4.412501 0.087498
						CHANNELS 3 Xrotation Yrotation Zrotation
						JOINT LeftShoulder_split
						{
							OFFSET 2.196093 4.412501 0.087498
							CHANNELS 3 Xrotation Yrotation Zrotation
							JOINT LeftArm
							{
								OFFSET 8.774866 -2.970879 -0.026997
								CHANNELS 3 Xrotation Yrotation Zrotation
								JOINT LeftForeArm
								{
									OFFSET 8.450586 -0.797432 -0.648343
									CHANNELS 3 Xrotation Yrotation Zrotation
									JOINT LeftHand
									{
										OFFSET 18.458662 0.962311 0.193148
										CHANNELS 3 Xrotation Yrotation Zrotation
										JOINT LeftHandThumb1
										{
											OFFSET 2.379990 -1.333382 2.680594
											CHANNELS 3 Xrotation Yrotation Zrotation
											JOINT LeftHandThumb2
											{
												OFFSET 1.903984 -1.066746 2.144473
												CHANNELS 3 Xrotation Yrotation Zrotation
												JOINT LeftHandThumb3
												{
													OFFSET 0.966393 -1.489639 2.964555
													CHANNELS 3 Xrotation Yrotation Zrotation
													JOINT LeftHandThumb4
													{
														OFFSET 1.205181 -0.823021 1.625701
														CHANNELS 3 Xrotation Yrotation Zrotation
														End Site
														{
															OFFSET 0.000000 0.000000 0.000000
														}
													}
												}
											}
										}
										JOINT LeftHandIndex1
										{
											OFFSET 7.830624 -0.787468 2.563931
											CHANNELS 3 Xrotation Yrotation Zrotation
											JOINT LeftHandIndex2
											{
												OFFSET 3.312897 -0.052605 1.515312
												CHANNELS 3 Xrotation Yrotation Zrotation
												JOINT LeftHandIndex3
												{
													OFFSET 3.460667 -0.207008 1.581951
													CHANNELS 3 Xrotation Yrotation Zrotation
													JOINT LeftHandIndex4
													{
														OFFSET 2.183182 0.110458 0.999585
														CHANNELS 3 Xrotation Yrotation Zrotation
														End Site
														{
															OFFSET 0.000000 0.000000 0.000000
														}
													}
												}
											}
										}
										JOINT LeftHandMiddle1
										{
											OFFSET 8.556145 -0.261200 0.258753
											CHANNELS 3 Xrotation Yrotation Zrotation
											JOINT LeftHandMiddle2
											{
												OFFSET 3.828903 -0.489014 -0.111505
												CHANNELS 3 Xrotation Yrotation Zrotation
												JOINT LeftHandMiddle3
												{
													OFFSET 3.696209 -0.166595 -0.107596
													CHANNELS 3 Xrotation Yrotation Zrotation
													JOINT LeftHandMiddle4
													{
														OFFSET 2.259281 0.534500 -0.065675
														CHANNELS 3 Xrotation Yrotation Zrotation
														End Site
														{
															OFFSET 0.000000 0.000000 0.000000
														}
													}
												}
											}
										}
										JOINT LeftHandRing1
										{
											OFFSET 8.509293 -0.556679 -3.044941
											CHANNELS 3 Xrotation Yrotation Zrotation
											JOINT LeftHandRing2
											{
												OFFSET 2.995171 -0.303261 -0.843591
												CHANNELS 3 Xrotation Yrotation Zrotation
												JOINT LeftHandRing3
												{
													OFFSET 2.968273 -0.101997 -0.834287
													CHANNELS 3 Xrotation Yrotation Zrotation
													JOINT LeftHandRing4
													{
														OFFSET 1.521358 -0.461468 -0.418735
														CHANNELS 3 Xrotation Yrotation Zrotation
														End Site
														{
															OFFSET 0.000000 0.000000 0.000000
														}
													}
												}
											}
										}
									}
								}
							}
						}
					}
					JOINT RightShoulder
					{
						OFFSET -2.196075 4.412512 0.070694
						CHANNELS 3 Xrotation Yrotation Zrotation
						JOINT RightShoulder_split
						{
							OFFSET -2.196075 4.412512 0.070694
							CHANNELS 3 Xrotation Yrotation Zrotation
							JOINT RightArm
							{
								OFFSET -8.774886 -2.970947 -0.094209
								CHANNELS 3 Xrotation Yrotation Zrotation
								JOINT RightForeArm
								{
									OFFSET -8.450586 -0.797386 -0.330665
									CHANNELS 3 Xrotation Yrotation Zrotation
									JOINT RightHand
									{
										OFFSET -18.458664 0.962341 0.025780
										CHANNELS 3 Xrotation Yrotation Zrotation
										JOINT RightHandThumb1
										{
											OFFSET -2.390282 -1.240040 2.604684
											CHANNELS 3 Xrotation Yrotation Zrotation
											JOINT RightHandThumb2
											{
												OFFSET -1.912228 -0.992111 2.083740
												CHANNELS 3 Xrotation Yrotation Zrotation
												JOINT RightHandThumb3
												{
													OFFSET -0.876358 -1.555370 2.930126
													CHANNELS 3 Xrotation Yrotation Zrotation
													JOINT RightHandThumb4
													{
														OFFSET -1.227077 -0.755932 1.835223
														CHANNELS 3 Xrotation Yrotation Zrotation
														End Site
														{
															OFFSET 0.000000 0.000000 0.000000
														}
													}
												}
											}
										}
										JOINT RightHandIndex1
										{
											OFFSET -8.716801 -0.633743 3.098187
											CHANNELS 3 Xrotation Yrotation Zrotation
											JOINT RightHandIndex2
											{
												OFFSET -3.319706 -0.240585 1.198087
												CHANNELS 3 Xrotation Yrotation Zrotation
												JOINT RightHandIndex3
												{
													OFFSET -3.153255 -0.154724 1.138827
													CHANNELS 3 Xrotation Yrotation Zrotation
													JOINT RightHandIndex4
													{
														OFFSET -1.818684 -0.003197 0.655154
														CHANNELS 3 Xrotation Yrotation Zrotation
														End Site
														{
															OFFSET 0.000000 0.000000 0.000000
														}
													}
												}
											}
										}
										JOINT RightHandMiddle1
										{
											OFFSET -8.158691 -0.528496 0.196552
											CHANNELS 3 Xrotation Yrotation Zrotation
											JOINT RightHandMiddle2
											{
												OFFSET -3.890194 -0.261169 -0.136423
												CHANNELS 3 Xrotation Yrotation Zrotation
												JOINT RightHandMiddle3
												{
													OFFSET -3.903057 -0.179909 -0.137173
													CHANNELS 3 Xrotation Yrotation Zrotation
													JOINT RightHandMiddle4
													{
														OFFSET -2.366261 0.198380 -0.083987
														CHANNELS 3 Xrotation Yrotation Zrotation
														End Site
														{
															OFFSET 0.000000 0.000000 0.000000
														}
													}
												}
											}
										}
										JOINT RightHandRing1
										{
											OFFSET -7.616104 -0.395126 -2.681268
											CHANNELS 3 Xrotation Yrotation Zrotation
											JOINT RightHandRing2
											{
												OFFSET -3.235790 -0.462120 -1.101476
												CHANNELS 3 Xrotation Yrotation Zrotation
												JOINT RightHandRing3
												{
													OFFSET -3.179264 -0.138618 -1.084847
													CHANNELS 3 Xrotation Yrotation Zrotation
													JOINT RightHandRing4
													{
														OFFSET -1.963291 -0.101624 -0.668250
														CHANNELS 3 Xrotation Yrotation Zrotation
														End Site
														{
															OFFSET 0.000000 0.000000 0.000000
														}
													}
												}
											}
										}
									}
								}
							}
						}
					}
				}
			}
		}
	}
	JOINT LeftUpLeg
	{
		OFFSET 10.205382 -3.823519 0.155145
		CHANNELS 3 Xrotation Yrotation Zrotation
		JOINT LeftLeg
		{
			OFFSET 0.283732 -12.998343 0.567794
			CHANNELS 3 Xrotation Yrotation Zrotation
			JOINT LeftFoot
			{
				OFFSET -1.058953 -10.688869 -2.184322
				CHANNELS 3 Xrotation Yrotation Zrotation
				JOINT LeftToeBase
				{
					OFFSET 0.108145 -7.191069 7.560211
					CHANNELS 3 Xrotation Yrotation Zrotation
					JOINT LeftToe_End
					{
						OFFSET 0.070226 0.081726 4.490266
						CHANNELS 3 Xrotation Yrotation Zrotation
						End Site
						{
							OFFSET 0.000000 0.000000 0.000000
						}
					}
				}
			}
		}
	}
	JOINT RightUpLeg
	{
		OFFSET -10.205383 -3.823513 0.005508
		CHANNELS 3 Xrotation Yrotation Zrotation
		JOINT RightLeg
		{
			OFFSET -0.283728 -12.998341 0.610627
			CHANNELS 3 Xrotation Yrotation Zrotation
			JOINT RightFoot
			{
				OFFSET 1.058956 -10.688892 -1.945833
				CHANNELS 3 Xrotation Yrotation Zrotation
				JOINT RightToeBase
				{
					OFFSET -0.108150 -7.191040 7.372945
					CHANNELS 3 Xrotation Yrotation Zrotation
					JOINT RightToe_End
					{
						OFFSET -0.070229 0.081738 4.479398
						CHANNELS 3 Xrotation Yrotation Zrotation
						End Site
						{
							OFFSET 0.000000 0.000000 0.000000
						}
					}
				}
			}
		}
	}
}
MOTION
Frames: 5
Frame Time: 0.016667
0.415652 46.749462 -8.336095 89.446450 1.028354 4.879497 -1.153905 0.649743 -1.228378 -2.316034 1.317258 -1.535886 0.000000 0.000000 0.000000 -2.316054 1.317256 -1.535886 -9.789804 1.583974 -0.348993 2.502137 5.858928 -13.077554 -0.000002 0.000000 0.000001 0.301177 -2.573227 -7.829878 0.000000 0.000000 0.000000 3.709019 14.875307 -17.616052 -6.447030 -129.714814 3.036293 42.576807 8.599583 51.302275 -19.769281 6.190556 -38.336172 -4.526353 23.724003 17.619299 -1.210721 -15.365552 -7.913971 -0.000004 -0.000004 -0.000003 24.963394 17.113572 -61.114791 9.159696 -1.200203 -40.545799 2.389648 -0.072714 -5.225851 -0.000001 -0.000004 0.000002 -0.329315 5.208824 -52.739497 -4.907364 3.961508 -44.638459 -0.455814 0.066366 -15.878040 -0.000000 -0.000000 0.000002 -11.273896 1.386168 -46.433303 -12.918254 11.355305 -62.840322 3.833915 0.767647 13.845961 -0.000001 0.000001 0.000002 0.363599 1.823654 6.304870 0.000000 0.000000 0.000000 -11.195690 -29.730229 12.129843 4.854986 137.610075 -4.404648 43.230514 -10.718327 -40.984243 -7.832108 -12.077363 -12.276667 -0.697375 -33.897785 -14.400701 3.562225 14.748216 8.652810 0.000000 -0.000002 0.000001 0.765055 -18.404015 27.968252 8.206886 6.086341 50.411021 0.862190 0.064299 2.396423 -0.000000 0.000001 -0.000001 -3.784356 -0.358284 14.775791 -6.139742 -5.162513 60.948305 -0.262370 0.003290 7.422939 0.000001 -0.000000 0.000000 -6.447142 10.503484 6.330449 -19.133141 -11.202002 78.834303 0.144678 -0.044672 -0.418777 0.000001 -0.000002 -0.000001 -21.266556 -0.832204 15.298143 30.953553 -3.945565 -2.449109 15.205782 -0.048051 -21.174314 -5.689039 -0.035754 0.075060 0.000002 -0.000000 -0.000000 -27.172449 -54.162116 -33.215715 10.901157 0.395138 -0.233576 13.206229 41.241550 25.524388 2.666153 -0.203828 0.459012 -0.000002 0.000002 -0.000003 
0.421407 46.750034 -8.349492 89.437789 1.021032 4.879859 -1.151066 0.657484 -1.214942 -2.310158 1.333088 -1.525448 0.000000 0.000000 0.000000 -2.310161 1.333086 -1.525446 -9.900960 1.586345 -0.318187 2.520833 5.884363 -13.149400 -0.000001 0.000000 -0.000000 0.299701 -2.565779 -7.843195 0.000000 0.000000 0.000000 3.673719 14.801585 -17.634640 -6.417132 -129.639996 3.052740 42.577637 8.569637 51.305499 -19.799226 6.148072 -38.362785 -4.511121 23.753315 17.613704 -1.210722 -15.365550 -7.913973 0.000001 0.000000 0.000002 24.954108 17.154935 -61.043627 9.121806 -1.174011 -40.425858 2.389645 -0.072715 -5.225849 0.000001 0.000003 0.000000 -0.309769 5.217811 -52.721332 -4.903904 3.956817 -44.547272 -0.455815 0.066366 -15.878040 0.000000 -0.000001 0.000002 -11.353409 1.374552 -46.304981 -12.916521 11.344843 -62.787095 3.833914 0.767646 13.845955 -0.000000 0.000001 0.000004 0.364491 1.899052 6.323389 0.000000 0.000000 0.000000 -11.358302 -29.859367 12.275339 4.836285 137.716421 -4.391716 43.355186 -10.674688 -40.818925 -7.931742 -11.860537 -12.179261 -0.718493 -33.858761 -14.408407 3.562223 14.748214 8.652806 0.000001 -0.000002 0.000001 0.978497 -17.903538 29.375530 8.490787 6.335193 51.294898 0.862191 0.064294 2.396424 -0.000000 -0.000003 0.000002 -4.051961 -0.223815 17.560042 -6.239094 -5.203954 63.201571 -0.262370 0.003290 7.422939 -0.000000 -0.000000 -0.000000 -7.113283 10.311029 8.263455 -19.136283 -11.210973 78.865551 0.144680 -0.044670 -0.418778 0.000001 -0.000002 0.000001 -21.188399 -0.782702 15.311315 30.755007 -3.943256 -2.441636 15.310684 -0.114526 -21.410625 -5.684239 -0.035747 0.075046 0.000002 -0.000001 0.000000 -27.115354 -53.978316 -33.156078 10.989075 0.408874 -0.213929 13.033343 41.105970 25.683437 2.652990 -0.203753 0.459007 -0.000000 -0.000000 0.000001 
0.425681 46.751881 -8.361398 89.423623 1.022680 4.884009 -1.147032 0.663070 -1.203198 -2.301893 1.344654 -1.517200 0.000000 0.000000 0.000000 -2.301877 1.344651 -1.517199 -10.017169 1.590680 -0.290128 2.538478 5.913941 -13.218382 -0.000000 0.000001 -0.000001 0.300371 -2.517171 -7.840420 0.000000 0.000000 0.000000 3.622590 14.647710 -17.743899 -6.427387 -129.531519 3.055734 42.627176 8.459353 51.264869 -19.819672 6.120095 -38.384014 -4.497550 23.779468 17.608748 -1.210721 -15.365549 -7.913964 -0.000000 -0.000001 0.000001 24.945099 17.190767 -60.981254 9.086775 -1.149958 -40.315311 2.389646 -0.072714 -5.225853 0.000001 -0.000001 -0.000000 -0.284785 5.228463 -52.694339 -4.900445 3.952111 -44.455727 -0.455814 0.066365 -15.878038 -0.000001 -0.000000 0.000003 -11.444085 1.362382 -46.172089 -12.914773 11.334427 -62.733949 3.833912 0.767645 13.845955 -0.000000 -0.000000 -0.000001 0.364665 1.983898 6.352709 0.000000 0.000000 0.000000 -11.553501 -30.000103 12.453148 4.817866 137.821114 -4.378937 43.504828 -10.601809 -40.631303 -8.037422 -11.632430 -12.074211 -0.743192 -33.813159 -14.417474 3.562225 14.748212 8.652806 0.000001 -0.000002 0.000002 1.190932 -17.349855 30.875153 8.786874 6.599073 52.207726 0.862189 0.064298 2.396424 -0.000001 -0.000003 0.000000 -4.340395 -0.083695 20.506333 -6.343337 -5.252238 65.607949 -0.262371 0.003291 7.422942 -0.000000 -0.000000 0.000001 -7.813912 10.091279 10.296371 -19.139146 -11.219131 78.893937 0.144676 -0.044672 -0.418773 -0.000000 -0.000001 0.000000 -21.119968 -0.750435 15.317159 30.575338 -3.940865 -2.434183 15.405082 -0.181962 -21.619342 -5.691132 -0.035767 0.075064 -0.000001 -0.000001 0.000000 -27.036962 -53.784181 -33.084487 11.066675 0.422756 -0.195654 12.854828 40.948978 25.851865 2.641879 -0.203662 0.458972 0.000000 0.000003 -0.000002 
0.425947 46.757145 -8.369237 89.393857 1.045208 4.897512 -1.138427 0.664524 -1.195869 -2.284587 1.347991 -1.513991 0.000000 0.000000 0.000000 -2.284569 1.347988 -1.513991 -10.150561 1.599590 -0.263856 2.547885 5.959470 -13.282923 0.000000 -0.000001 0.000001 0.300477 -2.491790 -7.844404 0.000000 0.000000 0.000000 3.566484 14.510423 -17.812957 -6.406340 -129.408876 3.074926 42.665197 8.378180 51.276802 -19.820885 6.118979 -38.384864 -4.484999 23.803599 17.604143 -1.210719 -15.365550 -7.913969 -0.000000 0.000001 -0.000001 24.940378 17.206812 -60.954097 9.058221 -1.130512 -40.226071 2.389647 -0.072714 -5.225851 -0.000000 0.000003 -0.000001 -0.241298 5.243941 -52.656193 -4.896688 3.947057 -44.357472 -0.455813 0.066366 -15.878040 -0.000001 -0.000001 -0.000001 -11.560844 1.350087 -46.034256 -12.912894 11.323199 -62.676855 3.833912 0.767647 13.845960 0.000001 0.000001 0.000000 0.363551 2.096213 6.407224 0.000000 0.000000 0.000000 -11.827802 -30.185509 12.704522 4.798389 137.931763 -4.365299 43.717719 -10.464054 -40.406689 -8.165818 -11.359247 -11.944479 -0.782256 -33.741537 -14.432019 3.562223 14.748221 8.652810 0.000001 -0.000002 0.000001 1.377753 -16.710447 32.508934 9.078757 6.850881 53.020962 0.862190 0.064298 2.396425 0.000001 -0.000001 -0.000002 -4.681134 0.080069 23.615084 -6.450894 -5.307209 68.140242 -0.262372 0.003291 7.422936 0.000000 -0.000000 0.000001 -8.566291 9.855549 12.406152 -19.139377 -11.219814 78.896362 0.144675 -0.044670 -0.418777 -0.000001 -0.000002 -0.000000 -21.078543 -0.757515 15.305998 30.451056 -3.939970 -2.427769 15.475918 -0.239609 -21.753437 -5.713876 -0.035813 0.075108 0.000002 0.000001 -0.000001 -26.900944 -53.567685 -32.979507 11.113961 0.436487 -0.181733 12.663900 40.746347 26.043371 2.634072 -0.203620 0.458955 0.000001 0.000002 -0.000000 
0.423891 46.764343 -8.374635 89.356838 1.088762 4.918888 -1.130598 0.659192 -1.191455 -2.268586 1.337920 -1.516008 0.000000 0.000000 0.000000 -2.268585 1.337920 -1.516008 -10.285117 1.613409 -0.253261 2.566102 6.002263 -13.336247 0.000001 0.000001 -0.000001 0.300169 -2.469915 -7.850917 0.000000 0.000000 0.000000 3.506328 14.377859 -17.881490 -6.376366 -129.271056 3.103159 42.709412 8.287119 51.299167 -19.793806 6.165685 -38.388385 -4.482003 23.809312 17.603040 -1.210724 -15.365552 -7.913969 0.000000 -0.000003 -0.000001 24.929221 17.223717 -60.918635 9.036741 -1.116032 -40.159846 2.389646 -0.072715 -5.225851 -0.000000 0.000004 -0.000000 -0.196635 5.261426 -52.578089 -4.893390 3.942589 -44.270325 -0.455812 0.066365 -15.878040 -0.000001 0.000001 0.000002 -11.703402 1.334468 -45.874115 -12.911265 11.313600 -62.627931 3.833913 0.767647 13.845957 0.000001 0.000001 -0.000005 0.360032 2.219728 6.485241 0.000000 0.000000 0.000000 -12.172298 -30.362790 13.035025 4.783172 138.018548 -4.354417 43.978154 -10.251255 -40.100351 -8.289610 -11.097004 -11.810159 -0.817969 -33.675971 -14.445266 3.562226 14.748207 8.652808 0.000001 -0.000002 -0.000000 1.560745 -16.032870 34.200492 9.381328 7.118808 53.878305 0.862190 0.064294 2.396423 -0.000000 -0.000001 -0.000001 -5.028258 0.237678 26.816923 -6.560376 -5.369459 70.783115 -0.262369 0.003290 7.422940 0.000000 -0.000000 -0.000001 -9.345129 9.597860 14.568770 -19.142847 -11.229712 78.930752 0.144675 -0.044670 -0.418776 0.000001 -0.000001 0.000001 -21.051954 -0.807833 15.279734 30.350991 -3.938848 -2.420960 15.517478 -0.317773 -21.844512 -5.786347 -0.035951 0.075254 -0.000001 -0.000001 -0.000000 -26.732297 -53.322805 -32.860354 11.153272 0.451800 -0.167914 12.455739 40.485461 26.255177 2.633855 -0.203619 0.459030 0.000000 -0.000002 0.000003 
